<?xml version="1.0" standalone="no"?>
<!DOCTYPE svg PUBLIC "-//W3C//DTD SVG 20010904//EN"
 "http://www.w3.org/TR/2001/REC-SVG-20010904/DTD/svg10.dtd">
<svg version="1.0" xmlns="http://www.w3.org/2000/svg"
 width="300.000000pt" height="300.000000pt" viewBox="0 0 300.000000 300.000000"
 preserveAspectRatio="xMidYMid meet">
<metadata>
Created by potrace 1.10, written by Peter Selinger 2001-2011
</metadata>
<g transform="translate(0.000000,300.000000) scale(0.100000,-0.100000)"
fill="#000000" stroke="none">
<path d="M994 2876 c-46 -20 -74 -65 -74 -120 0 -26 4 -54 9 -64 4 -9 16 -32
25 -50 l17 -32 -61 -57 c-108 -100 -203 -251 -239 -383 -24 -84 -24 -90 -12
-90 5 0 24 25 42 55 34 57 55 73 39 31 -11 -30 -3 -251 12 -321 6 -27 21 -72
34 -98 33 -66 94 -117 81 -67 -3 11 -1 23 4 26 13 8 23 -24 11 -39 -5 -6 -13
-46 -16 -87 -9 -90 -23 -150 -37 -150 -14 0 -109 -90 -109 -104 0 -8 -24 -10
-75 -8 l-75 4 -39 -39 c-73 -73 -77 -179 -8 -252 44 -46 88 -64 142 -56 40 7
43 5 53 -23 16 -46 69 -99 128 -128 l54 -26 -58 -37 c-66 -43 -129 -109 -138
-146 -9 -35 1 -68 32 -104 68 -81 159 -78 199 5 9 19 19 34 23 34 4 0 17 -21
29 -47 20 -42 56 -101 94 -154 16 -22 4 -63 -23 -77 -34 -18 -178 -40 -185
-29 -9 14 -111 1 -128 -17 -19 -18 -19 -26 -1 -26 8 0 16 -5 18 -12 3 -9 21
-7 69 5 79 22 133 34 181 42 21 3 51 17 68 31 l30 26 0 -46 c0 -62 28 -81 121
-81 93 0 103 11 126 136 11 61 22 99 30 99 20 0 21 -13 7 -65 -7 -27 -13 -74
-14 -103 0 -51 2 -54 33 -67 17 -7 61 -16 97 -19 58 -6 74 -3 145 25 112 43
118 44 130 17 13 -30 51 -48 104 -48 26 0 52 -6 61 -15 13 -12 28 -14 59 -9
22 4 41 10 41 15 0 5 9 9 20 9 11 0 20 5 20 10 0 6 -9 10 -21 10 -11 0 -17 4
-14 10 4 6 -13 10 -44 10 -27 0 -53 -5 -56 -10 -3 -6 -32 -10 -64 -10 -47 0
-61 4 -79 23 -24 26 -29 47 -9 47 6 0 59 18 117 40 58 23 123 47 145 54 51 18
148 28 181 20 22 -6 23 -8 8 -19 -16 -11 -16 -14 2 -39 26 -35 56 -42 93 -20
36 21 37 26 15 64 -18 29 -36 33 -171 31 -29 0 -53 1 -53 3 0 3 16 14 35 26
19 12 35 28 35 35 0 8 -40 37 -89 66 -102 60 -119 87 -100 168 10 44 10 45
-33 84 -23 21 -59 47 -79 58 -20 10 -45 33 -56 51 -11 18 -43 71 -72 117 -46
76 -51 90 -51 143 0 45 5 66 22 88 12 17 27 30 34 30 7 0 36 18 65 40 l54 41
5 -36 c9 -62 25 -48 44 38 4 15 13 27 22 27 9 0 29 14 46 32 24 26 31 29 39
17 5 -8 9 -22 9 -31 0 -11 8 -18 18 -18 14 0 21 13 30 51 7 28 12 64 12 81 l0
30 44 -39 c51 -44 152 -100 162 -90 4 4 -4 20 -18 35 -53 57 -97 170 -118 307
-13 81 -13 142 0 129 5 -5 15 -62 23 -125 13 -116 13 -117 54 -160 23 -24 45
-40 49 -37 4 4 1 51 -6 103 -9 69 -10 99 -2 107 6 6 8 24 5 39 -6 34 6 37 32
9 10 -11 24 -20 32 -20 7 0 13 -4 13 -10 0 -5 5 -10 10 -10 13 0 8 38 -30 195
-16 66 -31 145 -34 175 -4 30 -13 89 -22 130 -44 206 -73 258 -138 247 -35 -6
-35 -6 -45 44 -6 28 -11 56 -11 64 0 7 -9 16 -19 20 -18 5 -41 74 -41 120 0
17 -39 30 -51 18 -5 -5 -2 -42 8 -88 9 -44 17 -96 18 -115 0 -19 7 -46 14 -59
9 -16 10 -26 2 -34 -16 -16 -23 -3 -26 45 -1 24 -7 56 -14 71 -6 16 -11 35
-11 42 0 8 -9 20 -20 28 -14 10 -24 34 -31 75 -8 47 -16 63 -31 68 -31 9 -42
-9 -29 -47 20 -58 14 -63 -36 -27 -52 37 -117 67 -202 92 -61 18 -137 21 -146
6 -3 -5 -43 -10 -88 -10 -72 0 -127 -9 -204 -34 -17 -6 -23 -3 -23 8 0 36 -45
91 -88 107 -33 13 -82 10 -118 -5z m132 -60 c35 -35 42 -62 23 -99 -33 -64
-108 -76 -158 -26 -41 41 -42 85 -2 128 41 44 91 43 137 -3z m534 -35 c90 -26
136 -47 197 -90 55 -38 63 -52 82 -151 6 -30 13 -66 16 -80 63 -322 69 -359
66 -450 -2 -99 -34 -253 -67 -325 -15 -35 -18 -37 -21 -17 -3 12 -9 22 -14 22
-6 0 -1 12 10 26 12 15 21 31 21 35 0 18 -16 7 -37 -25 -36 -56 -82 -85 -149
-92 -58 -7 -59 -7 -41 13 50 57 87 256 67 363 -19 101 -42 180 -52 180 -6 0
-7 -8 -3 -17 15 -42 35 -144 41 -216 l7 -79 -53 29 c-30 15 -72 45 -93 66 -22
20 -43 35 -46 32 -3 -3 0 -26 7 -50 7 -25 12 -53 12 -62 0 -20 -8 -10 -55 71
-21 37 -24 48 -11 43 9 -4 16 -2 16 4 0 6 -8 13 -18 15 -15 5 -40 52 -57 112
-10 34 -25 26 -27 -15 -3 -58 -4 -74 -13 -128 -7 -43 -10 -46 -16 -25 -4 14
-7 66 -8 117 -1 50 -5 94 -10 98 -17 10 -18 -8 -8 -105 9 -83 12 -204 8 -292
-1 -35 -17 -36 -81 -3 -58 29 -66 29 -61 -4 6 -49 -25 -1 -79 124 -23 51 -43
145 -42 195 1 30 11 89 22 130 26 96 35 148 23 135 -12 -13 -29 -67 -43 -138
-10 -49 -19 -65 -64 -110 -29 -28 -71 -80 -94 -114 -24 -35 -44 -63 -45 -63
-2 0 -2 17 0 38 l3 37 -11 -34 c-5 -18 -9 -47 -7 -65 2 -21 -3 -36 -17 -48
-18 -15 -19 -18 -4 -35 29 -33 71 -112 66 -125 -3 -8 -9 -1 -16 15 -15 37 -32
35 -24 -4 6 -30 5 -31 -18 -19 -13 7 -32 19 -41 27 -22 19 -41 7 -32 -20 6
-19 5 -20 -9 -9 -8 7 -28 43 -43 80 -23 56 -28 86 -32 183 -3 92 -1 122 11
146 9 17 13 33 10 37 -4 4 -13 -6 -20 -21 -11 -26 -12 -24 -6 22 3 28 9 58 14
67 11 21 12 48 2 48 -5 0 -26 -25 -47 -55 -22 -30 -41 -55 -42 -55 -16 0 74
183 124 253 43 61 161 187 174 187 5 0 -19 -34 -52 -76 -67 -81 -76 -116 -11
-43 21 25 79 73 128 107 48 34 93 65 98 69 6 5 29 18 51 31 46 24 84 28 102
10 6 -6 15 -9 19 -5 14 15 -20 32 -63 32 -24 0 -44 3 -44 8 0 4 0 9 0 12 0 3
1 5 3 4 1 0 16 5 32 11 17 7 39 14 50 16 29 7 184 14 160 8 -70 -19 -84 -26
-82 -45 1 -11 9 -19 19 -19 20 0 23 11 7 27 -8 8 7 14 53 22 35 6 67 17 73 26
13 20 57 19 135 -4z m336 -356 c26 -126 50 -250 55 -275 5 -25 11 -55 14 -67
3 -13 1 -23 -3 -23 -10 0 -26 71 -72 315 -16 83 -36 183 -44 223 -9 40 -16 79
-15 85 2 35 24 -52 65 -258z m-946 189 c0 -16 -35 -32 -47 -22 -21 17 -15 28
17 28 17 0 30 -3 30 -6z m979 -164 c6 -36 22 -119 36 -185 23 -111 32 -206 20
-193 -4 3 -17 59 -30 124 -13 66 -33 169 -45 229 -12 61 -24 130 -26 155 l-3
45 18 -55 c11 -30 24 -84 30 -120z m63 26 c-8 -15 -22 32 -27 93 l-5 56 19
-70 c10 -38 16 -74 13 -79z m27 48 c7 -30 10 -58 7 -61 -7 -8 -14 11 -25 70
-12 66 3 59 18 -9z m127 -91 c18 -28 60 -191 70 -276 2 -16 7 -34 10 -40 5 -8
4 -9 -3 -2 -6 6 -18 36 -27 67 -9 31 -21 60 -26 63 -15 9 -13 2 19 -83 35 -90
103 -348 99 -370 -2 -10 -19 -1 -56 33 -29 26 -56 45 -59 41 -3 -3 1 -14 10
-23 8 -10 18 -35 22 -56 10 -51 -9 -42 -61 31 -64 88 -74 114 -74 187 0 58 2
65 20 65 29 0 70 21 70 37 0 7 -13 39 -28 71 -16 31 -44 95 -62 142 -18 47
-38 91 -43 98 -19 24 25 52 78 48 10 0 29 -15 41 -33z m-149 10 c-4 -3 -1 -16
6 -27 8 -12 32 -66 55 -121 22 -55 50 -119 61 -142 12 -23 21 -44 21 -47 0 -3
-21 -8 -46 -12 l-47 -7 6 -201 c6 -192 9 -236 23 -298 6 -31 -2 -34 -29 -14
-22 17 -25 54 -32 411 -2 138 -6 257 -8 265 -14 56 -31 110 -44 138 -17 35 -6
62 25 62 8 0 12 -3 9 -7z m-970 -365 c1 -51 23 -136 50 -188 17 -33 16 -45 -1
-31 -8 7 -61 17 -118 23 -57 6 -105 12 -107 14 -9 8 159 234 173 234 2 0 3
-24 3 -52z m950 -36 c8 -5 12 -32 12 -77 -3 -125 13 -349 26 -380 9 -22 23
-34 50 -42 21 -7 42 -10 46 -7 5 2 22 -23 38 -56 17 -33 28 -60 25 -60 -12 0
-95 62 -125 95 -18 19 -36 35 -39 35 -3 0 -6 -37 -6 -81 -1 -44 -7 -86 -13
-92 -8 -8 -11 -6 -11 9 -1 46 -17 49 -59 11 -62 -56 -67 -53 -52 30 6 28 12
106 16 174 6 140 19 207 45 229 20 17 50 73 50 92 -1 7 -10 -4 -20 -24 -29
-53 -43 -58 -34 -11 3 21 10 43 15 49 5 6 16 28 24 50 14 35 14 37 0 20 -8
-11 -15 -23 -15 -28 0 -4 -3 -8 -7 -8 -13 0 -12 64 1 72 14 10 18 10 33 0z
m-551 -64 c15 -29 35 -65 45 -80 11 -14 19 -29 19 -32 0 -3 -34 -6 -76 -6
l-77 0 6 33 c6 31 10 52 23 110 9 42 31 32 60 -25z m116 -38 c10 -10 46 -34
80 -51 35 -18 59 -34 53 -35 -5 -2 -39 0 -75 4 -61 7 -65 8 -71 37 -4 17 -10
38 -14 48 -10 23 7 22 27 -3z m-487 -99 c20 -8 20 -8 -1 -15 -23 -7 -54 1 -54
15 0 11 27 11 55 0z m487 -5 c10 -7 15 -16 11 -19 -8 -9 -61 -9 -92 0 l-23 6
28 13 c38 16 55 16 76 0z m-615 -51 c3 -64 40 -125 77 -125 15 0 4 19 -13 25
-19 6 -33 36 -46 103 -6 30 -5 32 24 32 21 0 32 -6 36 -20 7 -23 33 -27 41 -5
4 8 10 15 16 15 5 0 7 -4 4 -8 -3 -4 -7 -28 -10 -51 -3 -24 -12 -51 -21 -61
-19 -21 -19 -30 0 -30 23 0 45 54 45 110 0 64 17 65 49 5 26 -49 54 -57 59
-17 2 12 4 22 6 22 1 0 26 -11 54 -25 80 -38 78 -39 81 20 1 22 5 25 41 25 40
0 40 0 40 -37 0 -65 18 -112 50 -128 34 -18 40 -18 40 -5 0 6 -11 16 -25 22
-25 11 -34 34 -49 116 -5 30 -4 32 23 32 16 0 31 -6 35 -15 3 -8 12 -15 21
-15 9 0 18 7 21 15 4 8 15 15 26 15 19 0 20 -4 14 -61 -9 -76 -13 -87 -37 -94
-10 -4 -19 -11 -19 -16 0 -17 27 -9 50 16 19 20 25 40 28 90 3 47 8 65 18 65
8 0 14 -6 14 -14 0 -8 7 -21 15 -30 14 -14 14 -19 -4 -55 -12 -22 -31 -47 -43
-56 -20 -13 -21 -17 -8 -26 8 -5 39 -8 68 -7 50 3 52 2 52 -23 0 -22 -8 -30
-42 -44 -72 -29 -131 -45 -167 -45 -19 0 -42 -7 -51 -15 -9 -8 -57 -20 -108
-27 -93 -13 -115 -23 -64 -31 19 -3 15 -4 -15 -6 -23 0 -45 4 -48 9 -3 6 -1
10 5 10 6 0 8 5 5 10 -3 6 -23 10 -43 11 -57 1 -67 9 -69 56 -2 52 -30 102
-60 109 -13 4 -23 10 -23 16 0 5 -6 8 -12 7 -37 -4 -78 3 -92 16 -10 10 -17
12 -21 4 -4 -5 -4 -13 -1 -16 3 -3 -6 -12 -20 -20 -34 -17 -39 -17 -24 2 7 9
10 19 6 22 -17 18 -49 -77 -50 -149 -1 -27 -4 -48 -8 -48 -10 0 -9 125 0 195
5 31 10 45 15 38 5 -7 23 -13 41 -13 41 0 53 28 30 73 -20 39 -11 77 19 77 19
0 22 -6 24 -45z m1267 -125 c20 -112 21 -109 -13 -76 -24 23 -29 37 -34 100
-4 40 -10 82 -13 92 -6 16 -4 16 18 -4 20 -18 29 -42 42 -112z m-81 -110 c-8
-8 -23 24 -23 51 0 15 -2 42 -5 60 -3 19 4 3 14 -36 10 -38 17 -72 14 -75z
m-253 -16 c-6 -77 -13 -150 -15 -164 -2 -14 -4 -34 -5 -45 -1 -20 -1 -20 -13
0 -19 31 -40 28 -64 -10 -18 -28 -85 -75 -107 -75 -2 0 10 26 27 58 33 59 33
61 36 263 l1 66 43 17 c51 19 58 20 56 4 -1 -7 -1 -19 0 -27 2 -21 28 5 36 36
13 55 15 10 5 -123z m-845 82 c46 -20 67 -55 63 -108 -3 -39 -6 -43 -31 -46
-25 -3 -26 -2 -17 22 25 66 -57 130 -121 95 -11 -5 -17 -14 -14 -19 4 -6 15
-4 28 4 27 18 60 7 82 -28 22 -34 11 -70 -18 -62 -12 4 -41 9 -65 13 -40 5
-43 8 -37 30 4 16 2 22 -5 18 -5 -3 -10 -15 -10 -25 0 -20 -32 -44 -44 -33
-11 12 -6 64 10 94 27 53 109 74 179 45z m675 -113 c-1 -22 -16 -30 -40 -21
-20 7 -22 11 -10 18 18 12 50 13 50 3z m-705 -53 c6 -5 24 -8 40 -8 44 1 121
-39 173 -91 50 -49 82 -120 82 -181 0 -41 -18 -110 -28 -110 -4 0 -18 -10 -32
-22 -14 -13 -50 -42 -80 -65 -101 -77 -173 -152 -167 -174 4 -16 -4 -24 -39
-42 -26 -12 -44 -28 -44 -38 0 -19 23 -31 45 -23 19 8 19 -3 0 -56 -16 -44
-14 -51 18 -88 28 -30 40 -28 87 15 l41 36 47 -46 c26 -26 53 -47 59 -47 7 0
33 31 58 69 26 38 52 71 58 74 7 2 37 5 68 6 55 2 57 2 68 -30 16 -46 14 -108
-3 -115 -8 -3 -40 0 -71 6 l-55 12 4 51 5 52 -12 -45 c-26 -89 -54 -128 -107
-148 -20 -8 -32 -2 -77 34 -61 50 -93 69 -93 55 0 -5 28 -29 63 -54 34 -25 73
-57 87 -71 l24 -27 -19 -35 c-19 -35 -70 -74 -98 -74 -9 0 -26 10 -37 23 -29
30 -122 172 -150 227 -13 25 -27 48 -31 51 -5 3 0 24 11 47 21 43 26 77 11 68
-5 -3 -12 -18 -16 -33 -22 -88 -88 -183 -127 -183 -50 0 -128 76 -128 126 0
50 153 179 245 206 l40 12 -67 6 c-83 6 -136 40 -194 125 -39 58 -41 59 -81
57 -145 -11 -223 202 -101 278 60 38 209 10 191 -36 -4 -11 -12 -13 -27 -9
-53 17 -87 17 -106 0 -21 -19 -27 -45 -10 -45 6 0 10 7 10 15 0 18 41 29 76
21 20 -5 24 -11 18 -24 -5 -9 -8 -41 -8 -70 1 -49 -1 -52 -20 -46 -37 12 -66
36 -72 60 -7 28 -24 32 -24 6 0 -30 53 -73 99 -79 43 -6 50 -18 30 -55 -9 -16
-8 -19 2 -16 8 3 18 19 23 36 7 25 5 36 -8 50 -24 28 -18 112 9 112 11 0 35
40 35 60 0 5 -10 18 -22 29 -19 19 -20 23 -8 46 22 42 136 110 215 129 26 6
107 -3 120 -14z m619 0 c44 -11 81 -21 82 -23 2 -1 -1 -28 -5 -59 -8 -62 -33
-108 -62 -115 -10 -3 -19 -12 -19 -20 0 -8 5 -11 10 -8 18 11 32 -5 18 -22
-15 -18 -22 -173 -8 -173 6 0 10 -5 10 -11 0 -5 11 -27 25 -47 14 -20 25 -42
25 -48 0 -17 -120 -104 -142 -104 -10 0 -18 -5 -18 -11 0 -8 -5 -7 -16 2 -13
10 -17 10 -25 -2 -5 -8 -7 -23 -5 -34 4 -18 3 -18 -11 3 -23 33 -43 28 -43
-10 0 -29 1 -30 13 -14 12 16 14 16 26 2 19 -23 31 -20 31 9 0 26 14 33 26 13
5 -8 10 -7 18 3 6 8 29 26 51 39 22 13 54 38 72 55 17 18 35 29 40 26 5 -3 23
-29 38 -58 23 -41 37 -54 68 -64 l39 -13 -6 -45 c-5 -33 -20 -63 -60 -115 -82
-106 -113 -132 -174 -145 -29 -6 -54 -11 -56 -11 -2 0 -9 15 -16 32 -21 56
-84 193 -91 198 -16 13 -57 104 -52 116 3 7 13 16 23 19 11 3 17 12 14 20 -4
8 7 17 30 25 39 13 50 32 14 22 -19 -5 -15 3 21 44 24 27 48 59 54 72 6 12 18
22 28 22 10 0 21 5 24 10 3 6 -5 10 -19 10 -17 0 -34 -12 -53 -37 -15 -21 -40
-51 -55 -67 -15 -16 -36 -46 -46 -67 l-19 -38 -62 62 c-34 34 -72 77 -83 96
l-21 33 34 29 c19 16 42 32 52 35 20 6 21 13 7 49 -8 21 -5 33 15 65 14 22 25
44 25 50 0 21 73 205 84 212 19 13 67 9 150 -12z m-217 -70 c-16 -43 -27 -60
-40 -60 -10 0 -15 -5 -12 -10 4 -6 11 -8 16 -5 14 9 11 -3 -17 -66 l-27 -59
-18 52 c-10 29 -18 54 -19 56 0 1 11 2 25 2 14 0 25 5 25 11 0 7 -10 9 -25 5
-19 -5 -29 -1 -42 16 -10 13 -38 42 -63 65 -44 42 -38 60 8 27 26 -18 90 -13
132 11 14 8 37 14 52 15 l27 0 -22 -60z m-147 -392 c0 -6 8 -20 18 -31 12 -15
14 -21 5 -24 -21 -7 -15 -25 6 -18 14 4 19 1 17 -12 0 -11 5 -18 16 -17 9 1
31 -14 50 -33 24 -25 27 -32 13 -27 -17 7 -18 6 -7 -8 11 -14 6 -26 -30 -82
-24 -36 -46 -65 -49 -66 -9 0 -107 100 -131 133 -11 15 -15 26 -10 25 6 -2 10
2 10 7 1 6 -6 9 -13 9 -9 -1 -14 6 -12 19 1 13 -4 22 -13 22 -31 0 -13 30 48
77 59 45 82 52 82 26z m-138 -145 c12 -27 54 -81 95 -121 l72 -73 -43 -59 -43
-59 -45 47 c-54 55 -123 165 -133 212 -6 29 -3 37 26 65 19 18 37 33 41 34 5
1 18 -20 30 -46z m-67 -167 l35 -59 -23 -21 c-55 -50 -56 -50 -77 -31 -24 22
-25 48 -5 105 20 57 19 61 -11 50 -31 -12 -44 -13 -44 -1 0 15 74 40 83 27 4
-6 23 -37 42 -70z m355 44 l20 -40 -34 0 c-19 0 -38 4 -41 10 -5 8 23 70 32
70 1 0 12 -18 23 -40z m510 -58 c0 -23 -4 -48 -10 -55 -5 -7 -30 -39 -54 -72
-59 -80 -69 -88 -159 -129 l-77 -35 -15 29 c-9 17 -21 30 -28 31 -6 0 17 7 53
14 58 13 70 20 112 65 73 77 125 151 133 187 6 29 8 31 26 20 14 -9 19 -23 19
-55z m-396 -172 c10 -25 29 -57 44 -72 29 -32 29 -33 -15 -41 -50 -10 -63 10
-63 101 0 81 7 84 34 12z m448 22 c24 -16 66 -42 93 -60 28 -17 43 -32 35 -32
-9 0 -52 22 -95 49 -44 27 -82 47 -85 44 -6 -6 34 -37 97 -74 74 -43 66 -54
-76 -98 -48 -15 -46 -16 -65 33 -16 41 -56 91 -56 69 0 -6 7 -16 16 -24 8 -7
13 -21 11 -31 -3 -10 -1 -16 3 -13 8 5 23 -26 25 -50 1 -13 -23 -29 -62 -43
-40 -13 -51 0 -18 22 36 24 31 34 -17 38 l-43 3 33 15 c42 19 41 28 -5 32
l-38 4 36 17 c20 9 56 39 79 67 25 30 48 49 56 46 8 -3 14 -1 14 4 0 16 17 11
62 -18z m-537 -22 c7 0 9 -18 5 -47 -5 -47 -6 -48 -38 -46 -67 3 -82 11 -83
46 l-1 32 -11 -28 c-7 -17 -16 -26 -25 -22 -7 3 -17 5 -22 5 -5 0 5 14 22 30
16 17 33 28 38 25 4 -3 10 1 13 9 4 10 15 12 49 5 24 -4 48 -8 53 -9z m45 -57
c0 -24 -5 -33 -16 -33 -12 0 -15 6 -10 23 3 12 6 33 6 47 0 20 2 22 10 10 5
-8 10 -30 10 -47z m-205 -40 c-3 -10 -9 -31 -12 -48 -23 -129 -44 -155 -124
-155 -46 0 -89 34 -89 71 0 21 1 21 18 6 26 -24 63 -21 102 8 45 33 73 79 68
110 -4 21 -1 25 19 25 20 0 24 -4 18 -17z m470 -12 c19 -8 18 -9 -7 -21 -43
-20 -35 -40 15 -40 l42 0 -25 -20 c-20 -16 -22 -22 -12 -29 10 -6 5 -11 -19
-20 -18 -6 -33 -10 -35 -9 -6 7 -13 131 -8 139 6 11 22 11 49 0z m-258 -14 c3
-4 26 -8 52 -7 25 1 49 1 53 1 4 -1 0 -17 -8 -37 -8 -20 -12 -39 -9 -42 8 -8
25 18 25 40 0 9 14 24 32 32 40 21 48 11 48 -66 0 -44 -4 -58 -14 -58 -8 0
-51 -14 -95 -31 -71 -28 -86 -31 -145 -24 -39 4 -75 14 -87 24 -21 17 -22 20
-9 99 l13 81 69 -1 c38 -1 72 -6 75 -11z m757 -62 c-22 -17 -40 -19 -49 -5 -8
13 48 41 59 29 6 -5 3 -14 -10 -24z"/>
<path d="M1481 2693 c-22 -28 -37 -70 -28 -79 3 -3 14 15 26 40 16 37 25 46
45 46 29 0 156 -83 205 -134 35 -36 51 -44 51 -26 0 14 -126 116 -185 151 -62
36 -88 36 -114 2z"/>
<path d="M1235 2668 c-53 -29 -165 -157 -165 -189 0 -6 25 12 55 39 30 28 77
61 105 74 27 13 49 26 50 31 1 17 -30 4 -96 -39 l-69 -46 45 47 c25 25 60 56
79 67 33 21 34 21 47 3 16 -21 27 -16 18 9 -7 18 -40 21 -69 4z"/>
<path d="M1506 2641 c-10 -11 -16 -26 -14 -33 3 -8 9 -5 17 10 6 12 21 22 32
22 31 0 100 -115 135 -228 2 -7 8 -11 14 -7 19 12 -68 194 -113 236 -26 24
-49 24 -71 0z"/>
<path d="M1520 2580 c0 -5 4 -10 8 -10 5 0 28 -19 50 -42 23 -23 45 -38 49
-35 9 9 -77 97 -94 97 -7 0 -13 -4 -13 -10z"/>
<path d="M1850 2434 c0 -3 17 -25 38 -49 20 -23 49 -66 65 -96 33 -65 36 -43
2 26 -17 34 -21 51 -13 56 7 4 -1 13 -19 22 -16 9 -35 23 -42 31 -13 16 -31
21 -31 10z"/>
<path d="M820 2128 c-6 -23 -13 -50 -16 -58 -3 -13 14 -20 78 -33 46 -9 88
-17 94 -17 6 0 14 17 18 38 3 20 9 47 12 59 5 19 0 22 -48 32 -136 27 -125 28
-138 -21z m155 -38 l0 -35 -49 2 c-27 1 -59 4 -73 8 -22 5 -24 9 -18 38 4 18
9 35 11 38 2 4 32 1 66 -5 l63 -11 0 -35z"/>
<path d="M1070 1911 c0 -10 70 -21 84 -13 5 3 1 9 -10 13 -27 11 -74 11 -74 0z"/>
<path d="M1460 1890 c0 -5 16 -10 35 -10 19 0 35 5 35 10 0 6 -16 10 -35 10
-19 0 -35 -4 -35 -10z"/>
<path d="M1197 1608 c-20 -12 3 -22 43 -19 39 2 40 1 40 -28 0 -35 -7 -39 -26
-14 -7 10 -16 14 -20 10 -12 -12 32 -51 50 -44 18 7 22 62 6 87 -10 15 -72 21
-93 8z"/>
<path d="M1470 1610 c0 -28 154 -49 186 -25 17 13 9 14 -68 15 -48 0 -90 5
-93 10 -8 13 -25 13 -25 0z"/>
<path d="M1846 1583 c-8 -44 -16 -119 -11 -108 14 32 32 126 25 130 -5 3 -11
-7 -14 -22z"/>
<path d="M1120 1423 c0 -5 5 -14 12 -21 9 -9 9 -12 0 -12 -7 0 -12 -5 -12 -11
0 -5 4 -8 9 -5 4 3 13 -6 20 -20 14 -33 14 -47 -1 -38 -10 6 -10 5 -1 -7 10
-12 10 -18 1 -27 -10 -10 -10 -17 0 -33 10 -16 10 -22 -3 -35 -28 -28 -20 -39
22 -28 18 5 21 10 13 24 -5 10 -9 45 -8 77 1 38 -5 71 -17 96 -17 36 -35 57
-35 40z"/>
<path d="M1214 1252 c-16 -10 -25 -45 -16 -59 8 -13 30 -17 68 -15 35 3 39 34
9 59 -27 24 -42 28 -61 15z m32 -23 c7 -12 -15 -31 -28 -23 -4 3 -8 12 -8 20
0 17 26 19 36 3z"/>
<path d="M800 1215 c13 -16 87 -51 127 -61 16 -4 23 -2 23 9 0 8 -9 17 -20 20
-11 3 -18 1 -14 -4 3 -5 -2 -6 -10 -3 -9 3 -13 10 -10 15 3 5 2 9 -3 8 -23 -4
-53 2 -49 10 3 5 -4 11 -17 15 -35 9 -40 7 -27 -9z"/>
<path d="M1080 1171 c0 -5 -8 -11 -19 -13 -13 -2 -16 -8 -12 -21 6 -17 9 -16
34 5 30 27 34 38 12 38 -8 0 -15 -4 -15 -9z"/>
<path d="M976 1144 c-19 -19 -30 -58 -22 -80 9 -23 46 -13 69 18 38 51 -4 106
-47 62z m40 -23 c-10 -16 -36 -13 -36 3 0 17 21 27 34 16 4 -5 5 -13 2 -19z"/>
<path d="M1259 1142 c14 -26 9 -35 -48 -89 -38 -36 -36 -41 9 -18 55 29 77 88
43 116 -15 13 -15 12 -4 -9z"/>
<path d="M1200 1132 c0 -11 -61 -35 -82 -33 -11 1 -18 -4 -18 -13 0 -9 6 -16
14 -16 27 0 106 41 106 55 0 8 -4 15 -10 15 -5 0 -10 -4 -10 -8z"/>
<path d="M746 623 c-3 -4 8 -12 26 -17 22 -7 44 -27 66 -60 25 -38 32 -44 32
-26 0 52 -95 132 -124 103z"/>
<path d="M1488 624 c-13 -12 -9 -59 5 -78 12 -16 13 -13 10 20 -6 61 -8 66
-15 58z"/>
<path d="M1570 1436 c0 -15 74 -86 90 -86 22 0 7 -20 -47 -61 -118 -88 -217
-214 -125 -158 77 47 103 67 94 72 -5 4 -26 -5 -46 -20 -58 -39 -30 -1 38 52
32 25 60 45 63 45 11 0 33 -30 33 -47 0 -28 28 -121 29 -97 2 35 -20 138 -32
153 -8 10 -8 16 4 25 23 17 13 38 -36 76 -24 19 -44 41 -45 48 0 17 -20 15
-20 -2z"/>
<path d="M1662 944 c-72 -54 -84 -80 -14 -32 58 39 87 66 81 73 -3 3 -33 -16
-67 -41z"/>
<path d="M1640 890 c-14 -10 -21 -22 -17 -27 5 -4 14 0 21 10 7 9 18 17 25 17
6 0 11 5 11 10 0 15 -12 12 -40 -10z"/>
<path d="M1761 794 c-24 -19 -51 -34 -60 -33 -30 3 -37 -1 -37 -21 0 -11 2
-20 4 -20 20 0 152 87 152 100 0 16 -13 10 -59 -26z"/>
<path d="M1625 739 c-4 -6 -4 -13 -1 -16 3 -4 -11 -15 -31 -25 l-38 -18 35 5
c39 6 45 11 55 43 6 22 -8 31 -20 11z"/>
<path d="M1663 634 c-29 -12 -53 -26 -53 -29 0 -3 14 -32 30 -65 22 -44 36
-60 51 -60 28 0 99 38 99 53 0 14 -56 113 -67 120 -5 3 -32 -6 -60 -19z m54
-66 c-41 -22 -44 -22 -52 2 -4 12 -16 20 -28 21 -15 0 -7 8 28 24 l50 22 17
-26 c17 -26 17 -26 -15 -43z m-1 -19 c39 18 41 18 52 1 10 -16 6 -21 -29 -39
-22 -12 -44 -21 -48 -21 -9 0 -51 65 -51 78 0 4 8 -3 18 -15 17 -22 17 -22 58
-4z"/>
<path d="M1260 936 c0 -8 11 -28 25 -44 14 -17 25 -35 25 -41 0 -6 7 -8 15 -5
17 7 21 -11 5 -21 -5 -3 -10 -13 -10 -22 0 -11 5 -13 18 -8 9 4 27 10 40 12
22 5 22 5 5 -25 -10 -17 -15 -33 -12 -36 8 -8 49 5 49 16 0 6 -7 8 -15 4 -19
-7 -19 3 0 28 23 31 18 39 -20 32 -35 -7 -35 -6 -29 20 6 23 4 25 -15 19 -13
-4 -21 -2 -21 6 0 6 -13 27 -30 46 -17 19 -30 28 -30 19z"/>
</g>
</svg>
